<svg width="132" height="41" fill="none" xmlns="http://www.w3.org/2000/svg"><path d="M12.755 18.862l.472-.166-.117-.334h-.355v.5zm-6.884 0v-.5h-.356l-.117.335.473.165zM4.43 23v.5h.355l.116-.336L4.43 23zm-3.21 0l-.468-.177-.256.677h.724V23zM7.934 5.227v-.5h-.346l-.122.323.468.177zm2.77 0l.468-.177-.122-.323h-.345v.5zM17.432 23v.5h.723l-.256-.677-.467.177zm-3.223 0l-.472.166.118.334h.354V23zm-7.47-6.628l-.473-.165-.232.665h.704v-.5zm5.15 0v.5h.705l-.232-.665-.472.165zM9.314 8.999l.472-.165-.472-1.352-.472 1.352.472.165zm3.442 9.363H5.871v1h6.884v-1zm-7.357.335l-1.44 4.139.944.328 1.44-4.138-.944-.329zM4.43 22.5H1.22v1h3.21v-1zm-2.743.677L8.401 5.403l-.935-.353L.752 22.823l.935.354zm6.247-17.45h2.77v-1h-2.77v1zm2.303-.323l6.726 17.773.935-.354L11.172 5.05l-.935.354zM17.431 22.5h-3.223v1h3.223v-1zm-2.751.334l-1.453-4.138-.943.331 1.452 4.139.944-.332zm-7.943-5.962h5.152v-1H6.737v1zm5.624-.665L9.785 8.834l-.944.33 2.576 7.373.944-.33zM8.84 8.834l-2.576 7.373.944.33 2.576-7.374-.944-.33zm17.147 7.318l.443-.231-.14-.27h-.303v.5zm-3.443 0v-.5h-.5v.5h.5zm0 6.848v.5h.5V23h-.5zm-3.088 0h-.5v.5h.5V23zm0-17.773v-.5h-.5v.5h.5zm10.999 1.379l.318-.386-.318.386zm.805 6.982l-.406-.291.406.291zm-2.392 1.844l-.194-.461-.508.213.261.485.44-.237zm3.991 7.41h.5v-.127l-.06-.11-.44.236zm0 .158v.5h.5V23h-.5zm-3.308 0l-.443.23.14.27h.303V23zm-7.007-9.326h-.5v.5h.5v-.5zm5.616-.781l.332.373.003-.002-.335-.371zm.06-4.37l-.347.358.002.003.346-.362zm-2.416-.806l.007-.5h-.007v.5zm-3.26 0v-.5h-.5v.5h.5zm3.443 7.935h-3.443v1h3.443v-1zm-3.943.5V23h1v-6.848h-1zm.5 6.348h-3.088v1h3.088v-1zm-2.588.5V5.227h-1V23h1zm-.5-17.273h6.25v-1h-6.25v1zm6.25 0c1.982 0 3.436.445 4.43 1.265l.637-.772c-1.236-1.019-2.948-1.493-5.067-1.493v1zm4.43 1.265c.976.805 1.49 1.98 1.49 3.606h1c0-1.857-.6-3.344-1.853-4.378l-.637.772zm1.49 3.606c0 1.104-.267 1.994-.772 2.699l.813.583c.65-.907.96-2.01.96-3.282h-1zm-.773 2.7c-.508.712-1.227 1.272-2.18 1.673l.389.921c1.099-.462 1.975-1.13 2.605-2.013l-.814-.581zm-2.425 2.37l3.991 7.41.88-.474-3.991-7.41-.88.475zm3.931 7.173V23h1v-.159h-1zm.5-.341h-3.308v1h3.308v-1zm-2.864.27l-3.565-6.85-.887.462 3.565 6.848.887-.462zm-7.45-8.596h3.173v-1h-3.174v1zm3.173 0c1.123 0 2.07-.282 2.774-.908l-.665-.747c-.467.416-1.149.655-2.109.655v1zm2.777-.91c.707-.64 1.044-1.503 1.044-2.532h-1c0 .794-.25 1.37-.714 1.79l.67.742zm1.044-2.532c0-1.05-.304-1.933-.973-2.571l-.69.723c.421.403.663.994.663 1.848h1zm-.97-2.568c-.662-.642-1.611-.93-2.758-.947l-.015 1c1.002.015 1.664.264 2.077.664l.696-.717zm-2.765-.947h-3.26v1h3.26v-1zm-3.76.5v5.957h1V7.717h-1zM35.058 23h-.5v.5h.5V23zm0-17.773v-.5h-.5v.5h.5zm9.423 1.05l-.25.432.002.001.248-.434zm2.82 12.731l-.442-.233v.002l.442.231zm-2.868 2.954l-.243-.437-.001.001.244.436zM38.146 7.717v-.5h-.5v.5h.5zm0 12.817h-.5v.5h.5v-.5zm5.737-1.514l-.38-.325.38.325zm1.33-4.37l.5.005v-.005h-.5zM35.559 23V5.227h-1V23h1zm-.5-17.273h5.249v-1h-5.25v1zm5.249 0c1.493 0 2.797.332 3.924.982l.5-.866c-1.297-.749-2.777-1.116-4.424-1.116v1zm3.926.983c1.135.65 2.012 1.572 2.637 2.775l.887-.46c-.71-1.369-1.72-2.433-3.027-3.182l-.497.867zm2.637 2.775c.625 1.205.945 2.597.945 4.189h1c0-1.729-.348-3.283-1.058-4.65l-.887.461zm.945 4.189v.89h1v-.89h-1zm0 .89c0 1.618-.324 3.016-.956 4.21l.884.468c.72-1.36 1.072-2.925 1.072-4.677h-1zm-.957 4.213a6.524 6.524 0 01-2.668 2.748l.485.875a7.524 7.524 0 003.07-3.16l-.887-.463zm-2.67 2.749c-1.153.645-2.486.974-4.016.974v1c1.678 0 3.184-.363 4.505-1.101l-.488-.873zm-4.016.974h-5.114v1h5.114v-1zM37.646 7.717v12.817h1V7.717h-1zm.5 13.317h2.014v-1h-2.014v1zm2.014 0c1.73 0 3.125-.544 4.103-1.689l-.76-.65c-.747.874-1.834 1.34-3.343 1.34v1zm4.103-1.688c.974-1.138 1.434-2.726 1.45-4.691l-1-.009c-.015 1.827-.442 3.152-1.21 4.05l.76.65zm1.45-4.696v-.988h-1v.988h1zm0-.988c0-1.993-.431-3.597-1.37-4.737l-.772.636c.737.894 1.143 2.236 1.143 4.1h1zm-1.37-4.737c-.954-1.157-2.327-1.708-4.036-1.708v1c1.48 0 2.54.466 3.264 1.344l.771-.636zm-4.036-1.708h-2.161v1h2.16v-1zm19.543 9.399l-.306.395.002.002.304-.397zm-2.966-1.282l-.144.479.144-.479zm-3.418-1.44l-.266.423.266-.423zm-.684-7.52l-.31-.392-.002.001.312.391zm10.144 1.245l-.418.274.001.002.417-.276zm.83 2.796v.5h.5v-.5h-.5zm-3.076 0h-.5v.5h.5v-.5zm-.879-2.173l-.337.369.005.004.332-.373zm-4.846-.147l-.304-.396-.003.002.307.394zm.073 3.443l-.294.403.003.003.291-.406zm2.979 1.27l-.144.478h.003l.14-.479zm3.332 1.403l-.267.423.003.002.264-.425zm1.844 1.807l-.434.248v.002l.434-.25zm-1.123 5.92l.305.396-.305-.396zm-8.167.598l-.204.457.004.001.2-.458zm-2.515-1.977l-.407.289.001.002.406-.291zm-.89-2.93v-.5h-.5v.5h.5zm3.088 0h.5v-.5h-.5v.5zm6.286 2.527l.313.39h.001l-.314-.39zm1.318-1.734c0-.915-.333-1.673-1.026-2.204l-.608.795c.414.316.634.762.634 1.41h1zm-1.023-2.201c-.624-.484-1.69-.933-3.129-1.366l-.288.958c1.426.43 2.337.835 2.803 1.198l.614-.79zm-3.129-1.366c-1.409-.424-2.502-.889-3.297-1.385l-.53.848c.898.56 2.083 1.056 3.539 1.495l.288-.958zm-3.296-1.385c-1.503-.944-2.195-2.124-2.195-3.556h-1c0 1.84.927 3.312 2.663 4.403l.532-.847zm-2.195-3.556c0-1.273.507-2.312 1.557-3.149l-.623-.782c-1.278 1.018-1.934 2.34-1.934 3.931h1zm1.556-3.148c1.063-.842 2.463-1.284 4.242-1.284v-1c-1.947 0-3.583.487-4.863 1.5l.62.784zm4.242-1.284c1.175 0 2.203.217 3.096.636l.425-.904c-1.044-.492-2.221-.732-3.52-.732v1zm3.096.636c.89.42 1.577 1.01 2.077 1.775l.837-.547c-.607-.929-1.441-1.64-2.489-2.132l-.425.904zm2.078 1.777c.498.754.747 1.59.747 2.52h1c0-1.122-.304-2.15-.913-3.071l-.834.55zm1.247 2.02H60.68v1h3.076v-1zm-2.576.5c0-1.042-.334-1.914-1.047-2.547l-.664.747c.46.409.711.986.711 1.8h1zm-1.04-2.542c-.7-.641-1.669-.925-2.828-.925v1c1.005 0 1.697.246 2.153.662l.675-.737zm-2.828-.925c-1.074 0-1.981.229-2.66.75l.609.794c.444-.341 1.107-.544 2.051-.544v-1zm-2.663.753c-.689.536-1.023 1.292-1.023 2.2h1c0-.636.22-1.085.638-1.411l-.615-.79zm-1.023 2.2c0 .836.399 1.523 1.109 2.04l.59-.807c-.496-.361-.699-.766-.699-1.232h-1zm1.112 2.043c.672.481 1.73.923 3.126 1.342l.288-.958c-1.371-.411-2.299-.815-2.832-1.197l-.582.813zm3.129 1.343c1.357.399 2.42.85 3.206 1.347l.534-.846c-.89-.562-2.049-1.046-3.458-1.46l-.282.959zm3.21 1.349c.785.488 1.332 1.034 1.672 1.63l.869-.496c-.441-.772-1.123-1.43-2.014-1.984l-.528.85zm1.674 1.632c.34.587.519 1.291.519 2.13h1c0-.985-.212-1.867-.654-2.63l-.865.5zm.519 2.13c0 1.331-.502 2.363-1.515 3.144l.611.792c1.266-.977 1.904-2.305 1.904-3.936h-1zm-1.514 3.144c-1.017.783-2.436 1.202-4.31 1.202v1c2.016 0 3.674-.451 4.92-1.41l-.61-.792zm-4.31 1.202c-1.223 0-2.338-.224-3.352-.666l-.4.916c1.151.502 2.404.75 3.752.75v-1zm-3.348-.664c-1.005-.45-1.769-1.056-2.313-1.813l-.812.583c.661.92 1.574 1.631 2.717 2.143l.408-.913zm-2.31-1.81c-.53-.747-.8-1.62-.8-2.641h-1c0 1.21.324 2.289.983 3.219l.816-.578zm-1.3-2.141h3.089v-1h-3.089v1zm2.589-.5c0 1.13.38 2.064 1.181 2.729l.639-.77c-.534-.443-.82-1.072-.82-1.96h-1zm1.181 2.729c.79.654 1.876.945 3.188.945v-1c-1.178 0-2.004-.263-2.55-.715l-.638.77zm3.188.945c1.128 0 2.067-.225 2.73-.757l-.626-.78c-.41.33-1.083.537-2.104.537v1zm2.731-.758c.666-.537 1.004-1.26 1.004-2.123h-1c0 .57-.207 1.002-.632 1.345l.628.778zm15.617-.01h-.5v.5h.5v-.5zm8.068 0h.5v-.5h-.5v.5zm0 2.465v.5h.5V23h-.5zm-11.157 0h-.5v.5h.5V23zm0-17.773v-.5h-.5v.5h.5zm3.089 0h.5v-.5h-.5v.5zm0 15.807h8.068v-1h-8.069v1zm7.568-.5V23h1v-2.466h-1zm.5 1.966H72.704v1h11.157v-1zm-10.657.5V5.227h-1V23h1zm-.5-17.273h3.089v-1h-3.089v1zm2.589-.5v15.307h1V5.227h-1zm23.644 0h.5v-.5h-.5v.5zm-1.819 16.37l.337.369-.337-.37zm-9.668.024l-.337.37h.002l.335-.37zM85.656 5.227v-.5h-.5v.5h.5zm3.076 0h.5v-.5h-.5v.5zm7.129 0v-.5h-.5v.5h.5zm2.576 0v11.877h1V5.227h-1zm0 11.877c0 1.77-.563 3.125-1.656 4.123l.674.738c1.333-1.216 1.982-2.856 1.982-4.861h-1zm-1.656 4.123c-1.092.996-2.569 1.517-4.485 1.517v1c2.105 0 3.842-.577 5.16-1.778l-.675-.74zm-4.485 1.517c-1.944 0-3.428-.515-4.51-1.494l-.671.741c1.31 1.186 3.056 1.753 5.181 1.753v-1zm-4.509-1.493c-1.073-.978-1.631-2.342-1.631-4.16h-1c0 2.04.637 3.696 1.957 4.9l.674-.74zm-1.631-4.16V5.228h-1v11.865h1zm-.5-11.364h3.076v-1h-3.076v1zm2.576-.5v11.89h1V5.226h-1zm0 11.89c0 1.268.322 2.318 1.043 3.068l.72-.693c-.483-.504-.763-1.268-.763-2.376h-1zm1.043 3.068c.725.755 1.762 1.093 3.021 1.093v-1c-1.085 0-1.822-.288-2.3-.786l-.721.693zm3.021 1.093c1.273 0 2.317-.336 3.037-1.096.715-.754 1.028-1.84 1.028-3.163h-1c0 1.182-.28 1.976-.754 2.475-.469.494-1.207.784-2.31.784v1zm4.065-4.26V5.228h-1V17.02h1zm-.5-11.291h3.076v-1h-3.076v1zm12.5 5.92l-.432.252.432.743.432-.743-.432-.251zm3.735-6.42v-.5h-.287l-.145.248.432.252zm3.565 0l.427.26.463-.76h-.89v.5zm-5.371 8.813l-.427-.26-.159.26.159.261.427-.261zm5.493 8.96v.5h.893l-.467-.761-.426.261zm-3.601 0l-.432.253.145.247h.287V23zm-3.821-6.519l.431-.252-.43-.735-.432.734.431.253zM104.528 23v.5h.286l.145-.247-.431-.253zm-3.589 0l-.426-.262-.468.762h.894V23zm5.505-8.96l.426.262.161-.261-.16-.262-.427.261zm-5.383-8.813v-.5h-.891l.464.76.427-.26zm3.564 0l.433-.252-.145-.248h-.288v.5zm4.168 6.672l3.735-6.421-.864-.503-3.735 6.421.864.503zm3.303-6.172h3.565v-1h-3.565v1zm3.138-.76l-5.371 8.813.854.52 5.371-8.813-.854-.52zm-5.371 9.334l5.493 8.96.853-.522-5.493-8.96-.853.522zm5.92 8.199h-3.601v1h3.601v-1zm-3.17.247l-3.821-6.518-.863.505 3.821 6.519.863-.506zm-4.683-6.519l-3.833 6.519.862.506 3.833-6.518-.862-.507zm-3.402 6.272h-3.589v1h3.589v-1zm-3.163.762l5.505-8.96-.852-.524-5.505 8.96.852.524zm5.506-9.483l-5.383-8.813-.854.521 5.384 8.814.853-.522zm-5.81-8.052h3.564v-1h-3.564v1zm3.132-.249l3.736 6.42.864-.502-3.735-6.42-.865.502zM4.687 37.209l2.1-4.492h.722V38h-.586v-4.336L4.892 38h-.415l-2.07-4.434V38h-.582v-5.283h.767l2.095 4.492zm7.035.889c-.45 0-.856-.111-1.22-.332a2.27 2.27 0 01-.845-.923 2.9 2.9 0 01-.303-1.333v-.21c0-.508.098-.965.293-1.372a2.35 2.35 0 01.825-.957 2.02 2.02 0 011.143-.352c.64 0 1.149.22 1.523.66.378.435.566 1.033.566 1.791v.328H9.935v.112c0 .599.17 1.098.513 1.499.345.397.778.596 1.298.596.313 0 .588-.057.826-.171a1.84 1.84 0 00.654-.547l.366.278c-.43.622-1.053.933-1.87.933zm-.107-4.98c-.44 0-.81.16-1.114.483-.3.322-.481.755-.547 1.298h3.17v-.063c-.017-.508-.162-.921-.435-1.24-.274-.32-.632-.479-1.074-.479zm5.956-.05c.67 0 1.214.22 1.631.66.417.436.625 1.015.625 1.738v.127c0 .478-.096.91-.288 1.294a2.12 2.12 0 01-.82.893 2.347 2.347 0 01-1.226.318c-.697 0-1.261-.231-1.694-.694-.43-.465-.645-1.085-.645-1.86v-.469c0-1.094.208-1.968.625-2.622a2.503 2.503 0 011.777-1.172c.485-.078.826-.184 1.021-.317a.626.626 0 00.298-.547h.503c0 .273-.057.5-.171.679a1.218 1.218 0 01-.513.434c-.228.108-.576.199-1.045.274-.537.084-.97.314-1.299.688-.325.371-.537.87-.634 1.494.208-.273.468-.494.78-.664a2.248 2.248 0 011.075-.254zm-1.831 2.403v.122c0 .595.161 1.08.483 1.455.323.37.746.556 1.27.556.527 0 .95-.187 1.27-.561.318-.378.478-.872.478-1.484v-.127c0-.55-.163-1-.488-1.348-.323-.348-.746-.523-1.27-.523s-.945.178-1.264.533c-.32.351-.479.81-.479 1.377zm7.856 2.627c-.45 0-.856-.111-1.22-.332a2.271 2.271 0 01-.846-.923 2.9 2.9 0 01-.302-1.333v-.21c0-.508.097-.965.293-1.372a2.35 2.35 0 01.825-.957 2.02 2.02 0 011.142-.352c.642 0 1.15.22 1.524.66.378.435.566 1.033.566 1.791v.328h-3.77v.112c0 .599.172 1.098.514 1.499.345.397.777.596 1.298.596.313 0 .588-.057.825-.171.241-.114.46-.297.655-.547l.366.278c-.43.622-1.053.933-1.87.933zm-.108-4.98c-.439 0-.81.16-1.113.483-.3.322-.482.755-.547 1.298h3.17v-.063c-.017-.508-.162-.921-.435-1.24-.274-.32-.632-.479-1.075-.479zm7.89-.401V38h-.585v-4.78H28.63l-.093 1.977c-.04.733-.113 1.293-.22 1.68-.107.384-.267.667-.479.85-.211.182-.493.273-.844.273h-.225v-.518l.18-.01c.336-.006.577-.169.723-.488.147-.319.243-.888.288-1.709l.108-2.558h3.31zm2.817 1.919h1.524c.39 0 .732.071 1.025.215.296.14.52.335.67.586.152.25.229.541.229.873 0 .512-.176.922-.528 1.231-.348.306-.82.459-1.416.459h-2.085v-5.283h.581v1.919zm0 .498v2.373h1.514c.42 0 .749-.106.986-.317.241-.212.362-.502.362-.87 0-.351-.117-.635-.352-.85-.231-.217-.548-.33-.952-.336h-1.558zM43.56 38h-.586v-2.422h-2.847V38h-.586v-5.283h.586v2.368h2.847v-2.368h.586V38zm1.845-2.72c0-.508.098-.965.293-1.372.199-.407.477-.723.835-.947a2.25 2.25 0 011.226-.342c.703 0 1.272.248 1.709.742.436.492.654 1.145.654 1.958v.122c0 .511-.1.972-.298 1.382a2.192 2.192 0 01-.83.943 2.282 2.282 0 01-1.226.332c-.7 0-1.27-.246-1.709-.738-.436-.494-.654-1.149-.654-1.962v-.118zm.586.161c0 .632.163 1.151.488 1.558.33.404.759.605 1.29.605.527 0 .953-.201 1.279-.605.328-.407.493-.942.493-1.606v-.113c0-.403-.075-.773-.225-1.108a1.788 1.788 0 00-.63-.776 1.6 1.6 0 00-.927-.279 1.56 1.56 0 00-1.275.615c-.329.407-.493.941-.493 1.602v.107zm7.988 2.657a2.31 2.31 0 01-1.221-.332 2.271 2.271 0 01-.845-.923 2.9 2.9 0 01-.302-1.333v-.21c0-.508.097-.965.293-1.372a2.35 2.35 0 01.825-.957 2.02 2.02 0 011.142-.352c.642 0 1.15.22 1.524.66.377.435.566 1.033.566 1.791v.328h-3.77v.112c0 .599.171 1.098.513 1.499a1.65 1.65 0 001.3.596c.312 0 .587-.057.824-.171.241-.114.46-.297.655-.547l.366.278c-.43.622-1.053.933-1.87.933zm-.108-4.98c-.44 0-.81.16-1.113.483-.3.322-.482.755-.547 1.298h3.17v-.063c-.017-.508-.162-.921-.435-1.24-.274-.32-.632-.479-1.075-.479zM64.788 38h-.586v-4.78h-2.846V38h-.587v-5.283h4.02V38zm6.416-2.588c0 .824-.183 1.478-.547 1.963-.365.482-.853.723-1.465.723-.723 0-1.276-.254-1.66-.762v2.695h-.581v-7.314h.542l.029.747c.38-.563.932-.845 1.655-.845.632 0 1.126.24 1.484.718.362.478.543 1.142.543 1.992v.083zm-.586-.102c0-.674-.139-1.207-.415-1.597-.277-.39-.663-.586-1.158-.586-.358 0-.665.086-.922.259a1.628 1.628 0 00-.591.752v2.534c.14.303.34.534.6.693.26.16.568.24.923.24.492 0 .874-.196 1.147-.586.277-.394.416-.964.416-1.71zm2.162-.03c0-.508.098-.965.293-1.372.199-.407.477-.723.835-.947a2.25 2.25 0 011.226-.342c.703 0 1.272.248 1.709.742.436.492.654 1.145.654 1.958v.122c0 .511-.1.972-.298 1.382a2.192 2.192 0 01-.83.943 2.282 2.282 0 01-1.226.332c-.7 0-1.27-.246-1.709-.738-.436-.494-.654-1.149-.654-1.962v-.118zm.586.161c0 .632.163 1.151.488 1.558.33.404.759.605 1.29.605.527 0 .953-.201 1.279-.605.328-.407.493-.942.493-1.606v-.113c0-.403-.075-.773-.225-1.108a1.788 1.788 0 00-.63-.776 1.6 1.6 0 00-.927-.279 1.56 1.56 0 00-1.275.615c-.329.407-.493.941-.493 1.602v.107zm9.413-2.724h.586V38h-.585v-4.34L79.927 38h-.581v-5.283h.58v4.346l2.852-4.346zm5.85 1.396c0-.319-.12-.565-.357-.737-.238-.172-.565-.259-.981-.259-.378 0-.702.098-.972.293-.267.192-.4.436-.4.733h-.581c0-.44.187-.803.561-1.09.378-.286.841-.429 1.392-.429.605 0 1.077.13 1.416.39.338.261.508.63.508 1.109 0 .254-.079.483-.235.689-.156.205-.384.364-.684.478.678.186 1.016.605 1.016 1.26 0 .475-.184.851-.552 1.128-.368.276-.856.415-1.465.415-.589 0-1.077-.148-1.464-.445a1.395 1.395 0 01-.581-1.162h.585c0 .32.14.586.42.801.284.212.63.318 1.04.318.447 0 .795-.093 1.045-.279a.906.906 0 00.381-.766c0-.355-.115-.61-.346-.767-.231-.156-.585-.234-1.06-.234h-.806v-.508h.904c.81-.02 1.216-.332 1.216-.938zM91.264 38v-5.283h1.938c.67 0 1.185.12 1.543.361.358.238.537.588.537 1.05 0 .264-.08.5-.24.708-.159.205-.391.355-.697.45.345.064.621.212.83.444.211.23.317.5.317.805 0 .466-.172.827-.517 1.084-.342.254-.827.381-1.456.381h-2.255zm.58-2.432v1.944h1.695c.44 0 .778-.085 1.016-.254.237-.17.356-.414.356-.733a.82.82 0 00-.356-.698c-.238-.172-.576-.259-1.016-.259h-1.694zm0-.488h1.48c.918-.013 1.377-.325 1.377-.937 0-.323-.127-.557-.38-.703-.251-.15-.624-.225-1.119-.225h-1.357v1.865zm5.23.2c0-.508.097-.965.293-1.372.198-.407.477-.723.835-.947a2.25 2.25 0 011.225-.342c.703 0 1.273.248 1.709.742.436.492.654 1.145.654 1.958v.122c0 .511-.099.972-.297 1.382a2.193 2.193 0 01-.831.943 2.28 2.28 0 01-1.225.332c-.7 0-1.27-.246-1.71-.738-.435-.494-.653-1.149-.653-1.962v-.118zm.585.161c0 .632.163 1.151.489 1.558.329.404.758.605 1.289.605.527 0 .954-.201 1.279-.605.329-.407.493-.942.493-1.606v-.113a2.7 2.7 0 00-.224-1.108 1.791 1.791 0 00-.63-.776 1.6 1.6 0 00-.928-.279c-.52 0-.945.205-1.274.615-.33.407-.493.941-.493 1.602v.107zm5.469 2.066l.258-.337c.411-.557.647-1.37.709-2.442l.092-2.011h3.12v4.79h.547v2.046h-.581V38h-3.97v1.553h-.561l.005-2.046h.381zm.674 0h2.919v-4.243h-1.977l-.064 1.372c-.058 1.26-.351 2.216-.878 2.87zm7.733.098c.407 0 .747-.114 1.021-.342.277-.231.426-.53.449-.894h.562a1.678 1.678 0 01-.303.884c-.186.264-.433.47-.742.62-.306.15-.635.225-.987.225-.693 0-1.243-.241-1.65-.723-.404-.482-.606-1.13-.606-1.943v-.176c0-.521.092-.982.274-1.382.182-.4.443-.71.781-.928a2.177 2.177 0 011.196-.327c.58 0 1.057.173 1.431.518.378.345.58.799.606 1.362h-.562c-.026-.413-.176-.747-.449-1.001-.27-.254-.612-.38-1.026-.38-.527 0-.937.19-1.23.57-.29.381-.435.915-.435 1.602v.17c0 .675.145 1.2.435 1.578.293.378.705.567 1.235.567zm7.597-4.39h-1.923V38h-.586v-4.785h-1.851v-.498h4.36v.498zM120.759 38v-5.283h1.938c.671 0 1.185.12 1.543.361.358.238.537.588.537 1.05 0 .264-.079.5-.239.708-.159.205-.392.355-.698.45.345.064.622.212.83.444.212.23.317.5.317.805 0 .466-.172.827-.517 1.084-.342.254-.827.381-1.455.381h-2.256zm.581-2.432v1.944h1.694c.44 0 .778-.085 1.016-.254.237-.17.356-.414.356-.733a.82.82 0 00-.356-.698c-.238-.172-.576-.259-1.016-.259h-1.694zm0-.488h1.479c.918-.013 1.377-.325 1.377-.937 0-.323-.127-.557-.381-.703-.25-.15-.623-.225-1.118-.225h-1.357v1.865zm5.229.2c0-.508.097-.965.293-1.372.198-.407.477-.723.835-.947.361-.228.77-.342 1.225-.342.703 0 1.273.248 1.709.742.436.492.655 1.145.655 1.958v.122c0 .511-.1.972-.298 1.382a2.197 2.197 0 01-.83.943 2.284 2.284 0 01-1.226.332c-.7 0-1.27-.246-1.709-.738-.436-.494-.654-1.149-.654-1.962v-.118zm.586.161c0 .632.162 1.151.488 1.558.329.404.758.605 1.289.605.527 0 .954-.201 1.279-.605.329-.407.493-.942.493-1.606v-.113c0-.403-.074-.773-.224-1.108a1.791 1.791 0 00-.63-.776 1.599 1.599 0 00-.928-.279c-.521 0-.945.205-1.274.615-.329.407-.493.941-.493 1.602v.107z" fill="#000"/></svg>